# xmcd
#
# Track frame offsets:
#	150
#	11859
#	29396
#	49948
#	50733
#	71985
#	74166
#	95773
#	97566
#	116731
#	147240
#	172890
#	188216
#	214993
#	215736
#	233576
#	237810
#	263776
#	288799
#	307926
#
# Disc length: 4369 seconds
#
# Revision: 0
# Processed by: cddbd v1.5.2PL0 Copyright (c) Steve Scherf et al.
# Submitted via: audiograbber 1.83.01
#
DISCID=2f110f14
DTITLE=AK-9ine - The Struggle
DYEAR=2004
DGENRE=Rap
TTITLE0=AK-9ine - Intro
TTITLE1=AK-9ine - Make Money
TTITLE2=AK-9ine - Last Soldiers
TTITLE3=AK-9ine - Skit 1
TTITLE4=AK-9ine, CT - Money Power Respect
TTITLE5=AK-9ine - Skit 2
TTITLE6=AK-9ine,  P-Nut - Mr. Officer 
TTITLE7=AK-9ine - Skit 3
TTITLE8=AK-9ine, C-Bo - Walk The Streets
TTITLE9=AK-9ine, Big L - The Struggle
TTITLE10=AK-9ine - Mama's Song
TTITLE11=AK-9ine - The Ghetto
TTITLE12=AK-9ine, CT, Decision - Illegal Business
TTITLE13=AK-9ine - Skit 4
TTITLE14=AK-9ine - Fuck Being Broke
TTITLE15=AK-9ine - Skit 5
TTITLE16=AK-9ine, Tysta, Decision, Jeese - Tear The Roof Off
TTITLE17=AK-9ine, Rappin' 4-Tay, Johnny West, D-LO-G - Bay Anthem
TTITLE18=AK-9ine - Rocky Pablo
TTITLE19=AK-9ine, Loony, Big Z, Overdose - It Won"t Stop
EXTD=www.RapMusicGuide.com
EXTT0=
EXTT1=
EXTT2=
EXTT3=
EXTT4=
EXTT5=
EXTT6=
EXTT7=
EXTT8=
EXTT9=
EXTT10=
EXTT11=
EXTT12=
EXTT13=
EXTT14=
EXTT15=
EXTT16=
EXTT17=
EXTT18=
EXTT19=
PLAYORDER=
